<svg width="34" height="34" viewBox="0 0 34 34" fill="none" xmlns="http://www.w3.org/2000/svg">
<g clip-path="url(#clip0_2304_1697)">
<path d="M31.4469 12.2277L29.6915 10.6602L26.1149 12.0347L25.6282 14.043L23.7578 22.528L29.8314 25.1739L30.5851 24.2008C31.625 22.068 32.2082 19.6715 32.2082 17.1383C32.2082 15.4263 31.9404 13.7767 31.4469 12.2277Z" fill="#FE7D43"/>
<path d="M25.1937 21.4961L23.0621 22.5257L17.582 26.3857L20.0245 31.8349L21.7682 32.2669V32.2676C25.6648 30.8185 28.8002 27.8613 30.6068 24.1536L25.1937 21.4961Z" fill="#EE6161"/>
<path d="M19.6841 26.5421L18.5213 25.7271L11.5728 24.6719L8.23438 30.0353L9.77106 31.9707V31.9714C11.7258 32.8122 13.8797 33.2777 16.1423 33.2777C18.1222 33.2777 20.0185 32.9216 21.7714 32.2684V32.2677L19.6841 26.5421Z" fill="#C2A1D5"/>
<path d="M11.894 24.5358L8.03176 18.4688L1.29297 20.5537V23.4731C2.91943 27.2814 5.96846 30.3372 9.77193 31.9725V31.9718L12.214 26.3876L11.894 24.5358Z" fill="#8AC9FE"/>
<path d="M2.85342 9.44141L1.02359 11.4692H1.02291C0.361588 13.2322 0 15.1414 0 17.1349C0 19.384 0.460141 21.525 1.29071 23.4702H1.29139L6.91299 21.1158L7.64799 19.4275L8.08931 11.1228L2.85342 9.44141Z" fill="#75CDD5"/>
<path d="M12.3639 2.60156H9.11265C5.40026 4.39999 2.48105 7.57815 1.02246 11.4707H1.02314L6.71543 13.647L10.4373 11.7628L15.3594 7.33517L12.3639 2.60156Z" fill="#6CF5C2"/>
<path d="M25.7 14.0445L25.4018 12.7188L21.7274 13.6503L21.5295 15.3461C21.7178 15.9096 21.819 16.5131 21.819 17.1398C21.819 18.007 21.6247 18.8281 21.2773 19.5628L21.3569 20.9159L23.7577 22.1934L25.1936 21.4999C25.8298 20.1813 26.1866 18.7024 26.1866 17.1398C26.1867 16.0598 26.0154 15.0199 25.7 14.0445Z" fill="#FD6930"/>
<path d="M21.2814 19.5586C20.6608 20.8724 19.5516 21.9096 18.1882 22.4357L17.6641 23.4215L18.7565 26.2191L19.6848 26.5409C22.1065 25.6288 24.0823 23.8093 25.1977 21.4957L21.2814 19.5586Z" fill="#E94444"/>
<path d="M18.1863 22.4365C17.5522 22.6819 16.8623 22.8164 16.1412 22.8164C15.3691 22.8164 14.6337 22.6628 13.9628 22.3828L12.8166 22.5071L11.4531 25.2867L12.212 26.3861C13.4191 26.8999 14.7472 27.184 16.1412 27.184C17.3877 27.184 18.5812 26.957 19.683 26.5418L18.1863 22.4365Z" fill="#A274BF"/>
<path d="M10.9439 19.4297L10.047 18.7812L7.12028 19.7955L6.91406 21.118C7.93562 23.484 9.84007 25.3783 12.2128 26.3869L13.9637 22.3836C12.6172 21.8249 11.5318 20.7612 10.9439 19.4297Z" fill="#26A6FE"/>
<path d="M23.8793 2.96919C21.5819 1.71179 18.9448 0.996094 16.1411 0.996094C13.6216 0.996094 11.2373 1.57314 9.11328 2.60217L11.7307 8.10755L14.3311 9.27374L22.513 10.6589L24.8937 5.60688L23.8793 2.96919Z" fill="#FEE97D"/>
<path d="M33.9759 10.9796C34.0568 11.2128 33.9276 11.4663 33.6925 11.5397L31.4903 12.2268L27.3192 13.5284C26.3866 10.6303 24.3626 8.22219 21.7295 6.78943L23.8487 2.96965L24.9702 0.948288C25.0885 0.73419 25.3603 0.658746 25.5717 0.781767C29.4703 3.04169 32.4861 6.65553 33.9759 10.9796Z" fill="#FEC165"/>
<path d="M10.4609 17.1371C10.4609 16.4595 10.5791 15.8097 10.7973 15.2075L10.7471 12.8398H8.31152L6.71584 13.6476C6.31348 14.7344 6.09326 15.9103 6.09326 17.1371C6.09326 18.5515 6.38552 19.8973 6.91295 21.118L10.9427 19.4297C10.6328 18.7289 10.4609 17.9534 10.4609 17.1371Z" fill="#2ABCC8"/>
<path d="M13.7689 8.76435L11.73 8.10547C9.42384 9.23237 7.61386 11.2177 6.71533 13.6455L10.7968 15.2054C11.2943 13.8283 12.3084 12.6987 13.6059 12.051V12.0503L14.5409 10.9976L13.7689 8.76435Z" fill="#00F2A6"/>
<path d="M20.9226 8.29831L20.9217 8.29817C19.4999 7.52749 17.8715 7.08984 16.1404 7.08984C14.5581 7.08984 13.0615 7.45551 11.73 8.108L13.6059 12.0535C14.3685 11.6729 15.2296 11.4575 16.1404 11.4575C17.1028 11.4575 18.0088 11.6967 18.8027 12.1195L20.2322 12.1898L21.6309 10.3249L20.9226 8.29831Z" fill="#FEDF30"/>
<path d="M27.3206 13.5281L25.673 14.0419L21.533 15.3435C21.0701 13.9508 20.059 12.7856 18.7812 12.1066L20.8942 8.29794L21.7309 6.78906C24.364 8.22182 26.3881 10.6299 27.3206 13.5281Z" fill="#FDB441"/>
</g>
<defs>
<clipPath id="clip0_2304_1697">
<rect width="34" height="34" fill="white"/>
</clipPath>
</defs>
</svg>
