<svg width="34" height="34" viewBox="0 0 34 34" fill="none" xmlns="http://www.w3.org/2000/svg">
<path d="M19.7107 5.76174C19.3009 5.39484 18.6712 5.42964 18.3043 5.83956L18.3042 5.83963C17.9373 6.24949 17.9722 6.87922 18.382 7.24612H18.3821C19.4372 8.19055 20.0422 9.54364 20.0422 10.9584V10.9585C20.0422 11.5086 20.4882 11.9545 21.0383 11.9545H21.0384C21.5885 11.9545 22.0344 11.5086 22.0344 10.9585V10.9584C22.0344 8.97773 21.1875 7.08355 19.7107 5.76174Z" fill="#003D66"/>
<path d="M8.08936 10.957C8.08936 11.5071 8.53534 11.9531 9.08545 11.9531C9.63556 11.9531 10.0815 11.5071 10.0815 10.957C10.0815 8.20642 12.3114 5.97656 15.062 5.97656C15.6121 5.97656 16.0581 5.53058 16.0581 4.98047C16.0581 4.43036 15.6121 3.98438 15.062 3.98438C11.2111 3.98438 8.08936 7.10613 8.08936 10.957Z" fill="#4D7EFB"/>
<path d="M6.09717 10.9569C6.09717 9.38352 6.51022 7.83632 7.29162 6.4825C7.56668 6.00603 7.40332 5.39689 6.92692 5.12183C6.45045 4.84684 5.84131 5.01014 5.56632 5.48654V5.4866C4.61027 7.14277 4.10498 9.03435 4.10498 10.9569C4.10498 13.4561 4.93061 15.8136 6.49255 17.7745C6.83528 18.2048 7.46202 18.2758 7.89227 17.933C8.32258 17.5903 8.3935 16.9636 8.05078 16.5333V16.5333C6.77272 14.9288 6.09717 13.0005 6.09717 10.9569Z" fill="#4D7EFB"/>
<path d="M9.68375 3.78403C11.2443 2.61182 13.1041 1.99219 15.0621 1.99219C17.0204 1.99219 18.8804 2.61196 20.4412 3.78456C20.881 4.115 21.5054 4.02634 21.8359 3.58653L21.8359 3.58647C22.1664 3.14666 22.0777 2.52224 21.6379 2.1918C19.7292 0.757895 17.4554 0 15.0621 0C12.6692 0 10.3956 0.757695 8.48724 2.19121C8.04743 2.52158 7.95865 3.146 8.28909 3.5858C8.61946 4.02568 9.24387 4.11446 9.68375 3.78403Z" fill="#4D7EFB"/>
<path d="M24.33 5.11269C24.0363 4.64758 23.4211 4.50872 22.956 4.8025L22.9559 4.80257C22.4908 5.09635 22.352 5.71154 22.6458 6.17665V6.17672C23.5483 7.60538 24.0253 9.2585 24.0253 10.9574C24.0253 11.8272 23.8969 12.6956 23.6438 13.5385C23.4855 14.0654 23.7844 14.6207 24.3112 14.779H24.3113C24.8382 14.9372 25.3935 14.6384 25.5518 14.1115C25.8608 13.0826 26.0175 12.0214 26.0175 10.9574C26.0175 8.88124 25.434 6.86024 24.33 5.11269Z" fill="#003D66"/>
<path d="M12.0388 30.3085L4.80127 24.1844C4.31259 23.7708 4.03076 23.1632 4.03076 22.5231C4.03076 20.7625 6.01259 19.7306 7.45493 20.7402L12.0387 23.9488L12.0389 23.9489V10.21C12.0389 8.97215 13.0423 7.96875 14.2801 7.96875C15.5179 7.96875 16.5213 8.97215 16.5213 10.21V18.1787C16.5213 16.9409 17.5247 15.9375 18.7625 15.9375C20.0003 15.9375 21.0037 16.9409 21.0037 18.1787V18.8428C21.0037 17.605 22.0071 16.6016 23.2449 16.6016C24.4828 16.6016 25.4862 17.605 25.4862 18.8428V19.5068C25.4862 18.269 26.4896 17.2656 27.7274 17.2656C28.9652 17.2656 29.9686 18.269 29.9686 19.5068V33.0039C29.9686 33.554 29.5226 34 28.9725 34H13.035C12.4849 34 12.0389 33.554 12.0389 33.0039V30.3083L12.0388 30.3085Z" fill="url(#paint0_linear_2304_1676)"/>
<path d="M15.0617 5.97656C15.6119 5.97656 16.0578 5.53058 16.0578 4.98047C16.0578 4.43036 15.6119 3.98438 15.0617 3.98438C14.7975 3.98438 14.5369 3.99958 14.2803 4.0282V6.03805C14.5349 5.99795 14.7958 5.97656 15.0617 5.97656Z" fill="#003D66"/>
<path d="M21.6374 2.1918C19.7288 0.757895 17.455 0 15.0617 0C14.7997 0 14.5391 0.0096289 14.2803 0.0276914V2.02632C14.5387 2.00421 14.7993 1.99219 15.0617 1.99219C17.02 1.99219 18.88 2.61196 20.4409 3.78456C20.8807 4.115 21.5051 4.02634 21.8355 3.58653L21.8356 3.58647C22.166 3.14666 22.0773 2.52224 21.6374 2.1918Z" fill="#003D66"/>
<path d="M27.728 17.2656C26.4902 17.2656 25.4868 18.269 25.4868 19.5068V18.8428C25.4868 17.605 24.4834 16.6016 23.2456 16.6016C22.0078 16.6016 21.0044 17.605 21.0044 18.8428V18.1787C21.0044 16.9409 20.001 15.9375 18.7632 15.9375C17.5254 15.9375 16.522 16.9409 16.522 18.1787V10.21C16.522 8.97215 15.5186 7.96875 14.2808 7.96875V34H28.9731C29.5232 34 29.9692 33.554 29.9692 33.0039V19.5068C29.9692 18.269 28.9658 17.2656 27.728 17.2656Z" fill="url(#paint1_linear_2304_1676)"/>
<defs>
<linearGradient id="paint0_linear_2304_1676" x1="16.7922" y1="-0.5" x2="16.8681" y2="34.0003" gradientUnits="userSpaceOnUse">
<stop stop-color="#FD7E49"/>
<stop offset="1" stop-color="white"/>
</linearGradient>
<linearGradient id="paint1_linear_2304_1676" x1="21.9995" y1="-0.5" x2="22.125" y2="34" gradientUnits="userSpaceOnUse">
<stop stop-color="#DD5D27"/>
<stop offset="1" stop-color="white"/>
</linearGradient>
</defs>
</svg>
