<svg width="15" height="26" viewBox="0 0 15 26" fill="none" xmlns="http://www.w3.org/2000/svg">
<path d="M9.11518 25.9998H4.95154C4.25608 25.9998 3.69035 25.4341 3.69035 24.7387V15.3474H1.26119C0.565732 15.3474 0 14.7814 0 14.0862V10.062C0 9.36651 0.565732 8.80078 1.26119 8.80078H3.69035V6.7856C3.69035 4.78749 4.31777 3.08752 5.50458 1.86977C6.69674 0.646465 8.36279 0 10.3226 0L13.498 0.00515742C14.1923 0.00634762 14.757 0.572079 14.757 1.26635V5.00272C14.757 5.69818 14.1915 6.26391 13.4962 6.26391L11.3583 6.2647C10.7063 6.2647 10.5402 6.39542 10.5047 6.43549C10.4462 6.50195 10.3766 6.6898 10.3766 7.20851V8.80058H13.3356C13.5583 8.80058 13.7741 8.85552 13.9596 8.95907C14.3597 9.18262 14.6085 9.60534 14.6085 10.0622L14.6069 14.0864C14.6069 14.7814 14.0411 15.3472 13.3457 15.3472H10.3766V24.7387C10.3766 25.4341 9.81064 25.9998 9.11518 25.9998ZM5.21457 24.4756H8.85215V14.665C8.85215 14.2006 9.23003 13.8229 9.6942 13.8229H13.0826L13.084 10.325H9.69401C9.22984 10.325 8.85215 9.94731 8.85215 9.48295V7.20851C8.85215 6.61303 8.91265 5.93582 9.36214 5.42682C9.90526 4.8115 10.7612 4.74048 11.3579 4.74048L13.2328 4.73969V1.52898L10.3214 1.52422C7.17182 1.52422 5.21457 3.54038 5.21457 6.7856V9.48295C5.21457 9.94712 4.83689 10.325 4.37272 10.325H1.52422V13.8229H4.37272C4.83689 13.8229 5.21457 14.2006 5.21457 14.665V24.4756ZM13.495 1.52938H13.4952H13.495Z" fill="#565878"/>
</svg>
