<svg width="24" height="24" viewBox="0 0 24 24" fill="none" xmlns="http://www.w3.org/2000/svg">
<path d="M23.1428 17.1428H21.4286V13.7142C21.4286 13.2408 21.0448 12.8571 20.5714 12.8571H12.8571V6.85712H17.1428C17.6162 6.85712 18 6.47337 18 5.99996V0.857109C18 0.383755 17.6162 0 17.1428 0H6.85712C6.38372 0 5.99996 0.383755 5.99996 0.857159V6.00001C5.99996 6.47342 6.38372 6.85717 6.85712 6.85717H11.1428V12.8571H3.42854C2.95513 12.8571 2.57138 13.2409 2.57138 13.7143V17.1429H0.857159C0.383755 17.1428 0 17.5266 0 18V23.1428C0 23.6162 0.383755 24 0.857159 24H6.00001C6.47342 24 6.85717 23.6162 6.85717 23.1428V18C6.85717 17.5266 6.47342 17.1428 6.00001 17.1428H4.28569V14.5714H11.1428V17.1428H9.42855C8.95514 17.1428 8.57139 17.5266 8.57139 18V23.1428C8.57139 23.6162 8.95514 24 9.42855 24H14.5714C15.0448 24 15.4286 23.6162 15.4286 23.1428V18C15.4286 17.5266 15.0448 17.1428 14.5714 17.1428H12.8571V14.5714H19.7143V17.1428H18C17.5266 17.1428 17.1428 17.5266 17.1428 18V23.1428C17.1428 23.6162 17.5266 24 18 24H23.1428C23.6162 24 24 23.6162 24 23.1428V18C24 17.5266 23.6162 17.1428 23.1428 17.1428Z" fill="white"/>
</svg>
