<svg width="20" height="20" viewBox="0 0 20 20" fill="none" xmlns="http://www.w3.org/2000/svg">
<path d="M14.5862 0H5.41382C2.42859 0 0 2.42859 0 5.41382V14.5863C0 17.5714 2.42859 20 5.41382 20H14.5863C17.5714 20 20 17.5714 20 14.5863V5.41382C20 2.42859 17.5714 0 14.5862 0V0ZM18.8275 14.5863C18.8275 16.9249 16.9249 18.8275 14.5862 18.8275H5.41382C3.0751 18.8275 1.17249 16.9249 1.17249 14.5863V5.41382C1.17249 3.0751 3.0751 1.17249 5.41382 1.17249H14.5863C16.9249 1.17249 18.8275 3.0751 18.8275 5.41382V14.5863Z" fill="#565878"/>
<path d="M9.99985 4.53125C6.98441 4.53125 4.53125 6.98441 4.53125 9.99985C4.53125 13.0153 6.98441 15.4684 9.99985 15.4684C13.0153 15.4684 15.4684 13.0153 15.4684 9.99985C15.4684 6.98441 13.0153 4.53125 9.99985 4.53125ZM9.99985 14.296C7.63107 14.296 5.70374 12.3688 5.70374 9.99985C5.70374 7.63107 7.63107 5.70374 9.99985 5.70374C12.3688 5.70374 14.296 7.63107 14.296 9.99985C14.296 12.3688 12.3688 14.296 9.99985 14.296Z" fill="#565878"/>
<path d="M15.5993 2.58984C14.7082 2.58984 13.9834 3.31479 13.9834 4.20575C13.9834 5.09686 14.7082 5.82181 15.5993 5.82181C16.4904 5.82181 17.2154 5.09686 17.2154 4.20575C17.2154 3.31464 16.4904 2.58984 15.5993 2.58984ZM15.5993 4.64917C15.3549 4.64917 15.1559 4.4502 15.1559 4.20575C15.1559 3.96115 15.3549 3.76233 15.5993 3.76233C15.8439 3.76233 16.0429 3.96115 16.0429 4.20575C16.0429 4.4502 15.8439 4.64917 15.5993 4.64917Z" fill="#565878"/>
</svg>
