<svg width="20" height="23" viewBox="0 0 20 23" fill="none" xmlns="http://www.w3.org/2000/svg">
<path d="M10.112 11.3334C9.96564 11.3334 9.84996 11.3078 9.79461 11.2633L9.79353 11.2624L9.79256 11.2614C9.77941 11.2483 9.7751 11.231 9.78075 11.2141L9.78126 11.2127C9.78812 11.1955 9.8049 11.184 9.82309 11.1839C9.86053 11.1832 9.89329 11.1788 9.92302 11.1701C9.8756 11.1481 9.84266 11.1099 9.82307 11.0546C9.81648 11.0374 9.82216 11.0183 9.83735 11.0069C9.8411 11.0041 9.84533 11.0019 9.84982 11.0005C9.82347 10.9701 9.80401 10.9355 9.79311 10.8989L9.79277 10.8977L9.79253 10.8966C9.78883 10.8781 9.79711 10.859 9.81228 10.8508C9.81864 10.8472 9.82555 10.8453 9.83249 10.8451C9.82501 10.829 9.81957 10.8125 9.81634 10.7958C9.80739 10.7497 9.81478 10.7035 9.83829 10.6584L9.84373 10.6476C9.84808 10.6389 9.85641 10.6327 9.866 10.6312C9.8756 10.6296 9.88543 10.6328 9.8923 10.6397L9.90221 10.6496C9.98049 10.7317 10.0506 10.7706 10.1718 10.7972C10.1773 10.7507 10.1974 10.7075 10.2298 10.6734C10.2685 10.6329 10.32 10.6102 10.3751 10.6094H10.3754C10.4156 10.6094 10.4654 10.6323 10.4955 10.6485C10.5213 10.64 10.5525 10.6269 10.5848 10.6131C10.5999 10.606 10.6185 10.6092 10.6304 10.6211C10.6421 10.6328 10.6453 10.6492 10.6391 10.6652C10.6368 10.6717 10.6341 10.6781 10.6311 10.6844C10.6355 10.6864 10.6396 10.6892 10.643 10.6926C10.6534 10.7029 10.6577 10.7191 10.654 10.7338L10.6536 10.7352C10.6412 10.7751 10.6174 10.8076 10.586 10.828C10.5807 11.1077 10.3701 11.3334 10.112 11.3334ZM9.84393 11.2346C9.89608 11.2641 9.99547 11.282 10.112 11.282C10.224 11.282 10.3298 11.2339 10.4097 11.1465C10.4903 11.0585 10.5347 10.9415 10.5347 10.8173V10.8159C10.5347 10.8046 10.5409 10.7943 10.5508 10.7891C10.5711 10.7783 10.5874 10.7601 10.5981 10.7368C10.5871 10.7385 10.5759 10.7341 10.5691 10.7249C10.5611 10.7142 10.561 10.6998 10.5689 10.689C10.5731 10.6832 10.5769 10.6771 10.5803 10.6709C10.5524 10.6826 10.5259 10.6931 10.503 10.7001C10.4946 10.7026 10.4853 10.7016 10.4776 10.6973C10.4367 10.6745 10.3986 10.6609 10.3756 10.6608C10.2908 10.6621 10.2218 10.7348 10.2218 10.8229C10.2218 10.832 10.2177 10.8405 10.2107 10.8463C10.2037 10.8521 10.1945 10.8544 10.1856 10.8526C10.0458 10.8251 9.96297 10.7838 9.87683 10.6972C9.86449 10.7268 9.86112 10.7566 9.86682 10.786C9.87261 10.8158 9.88801 10.8457 9.91135 10.8724C9.92022 10.8825 9.9214 10.897 9.91428 10.9084C9.90719 10.9198 9.89371 10.9252 9.88075 10.9217C9.87062 10.919 9.8613 10.9154 9.85247 10.9108C9.87046 10.9499 9.90141 10.986 9.94031 11.0127C9.95158 11.0204 9.95629 11.0348 9.95177 11.0477C9.94724 11.0607 9.93459 11.069 9.92091 11.068C9.90601 11.0669 9.89281 11.064 9.88066 11.0593C9.90247 11.1037 9.93732 11.1281 9.99102 11.1375C10.0038 11.1397 10.0138 11.1498 10.0158 11.1626C10.0178 11.1754 10.0115 11.1881 10 11.1941C9.95427 11.2184 9.90425 11.2314 9.84393 11.2346Z" fill="#565878"/>
<path d="M4.57551 6.64844H0.79088C0.366616 6.64844 0.0214844 6.99357 0.0214844 7.41783V21.6809C0.0214844 22.105 0.366616 22.4502 0.79088 22.4502H4.57551C4.9996 22.4502 5.34474 22.105 5.34474 21.6809V7.41783C5.34474 6.99357 4.9996 6.64844 4.57551 6.64844ZM4.02741 21.1328H1.33881V7.96576H4.02741V21.1328Z" fill="#565878"/>
<path d="M2.68363 0C1.20376 0 0 1.20376 0 2.68346C0 4.16333 1.20376 5.3671 2.68363 5.3671C4.16316 5.3671 5.3671 4.16333 5.3671 2.68346C5.3671 1.20376 4.16333 0 2.68363 0ZM2.68363 4.04977C1.93017 4.04977 1.31732 3.43693 1.31732 2.68346C1.31732 1.93017 1.93017 1.31732 2.68363 1.31732C3.43693 1.31732 4.04977 1.93017 4.04977 2.68346C4.04977 3.43676 3.43693 4.04977 2.68363 4.04977Z" fill="#565878"/>
<path d="M17.5848 8.32049C16.6801 7.56531 15.53 7.16142 14.3474 7.18335C13.613 7.19688 12.8953 7.37398 12.245 7.69462V7.38323C12.245 6.97747 11.9159 6.64844 11.5102 6.64844H7.65667C7.25091 6.64844 6.92188 6.97747 6.92188 7.38323V21.7152C6.92188 22.1211 7.25091 22.45 7.65667 22.45H11.5862C11.95 22.45 12.245 22.155 12.245 21.7914V13.2464C12.245 12.5148 12.8174 11.8958 13.5484 11.8741C14.3082 11.8516 14.9334 12.4629 14.9334 13.2178V21.8051C14.9334 22.1612 15.2222 22.45 15.5783 22.45H19.3548C19.7109 22.45 19.9997 22.1612 19.9997 21.8051V13.479C19.9997 11.4818 19.1195 9.6015 17.5848 8.32049ZM18.6824 21.1327H16.2509V13.2178C16.2509 11.7502 15.0569 10.5562 13.5892 10.5562C12.1216 10.5562 10.9276 11.7502 10.9276 13.2178V21.1327H8.2392V7.96559H10.9276V8.92288H10.9285C10.9283 9.07806 10.9823 9.23393 11.0933 9.35948C11.3343 9.63181 11.7506 9.65716 12.023 9.416C12.672 8.84152 13.5061 8.51643 14.3718 8.50033C15.2383 8.48389 16.0793 8.77952 16.7407 9.33173C17.9748 10.3618 18.6824 11.8734 18.6824 13.479V21.1327Z" fill="#565878"/>
</svg>
