<svg width="20" height="17" viewBox="0 0 20 17" fill="none" xmlns="http://www.w3.org/2000/svg">
<path d="M7.61001 16.5122C4.27199 16.5122 1.63375 15.929 0.371543 14.9124L0.346976 14.8926L0.324698 14.8703C0.0248632 14.5703 -0.0734034 14.1768 0.0553808 13.7908L0.06713 13.7587C0.22338 13.3679 0.606223 13.1049 1.02111 13.1024C1.87499 13.0876 2.62206 12.9859 3.30001 12.7883C2.21862 12.2853 1.46743 11.4145 1.0205 10.1541C0.8702 9.76107 0.9999 9.32528 1.34627 9.06542C1.43172 9.00118 1.52831 8.95266 1.63055 8.92016C1.02965 8.22649 0.585776 7.43716 0.337211 6.60235L0.329429 6.57641L0.324088 6.54986C0.239707 6.12765 0.428458 5.69354 0.774375 5.50662C0.919486 5.4233 1.07711 5.38012 1.23534 5.37646C1.06475 5.00903 0.940696 4.63183 0.867148 4.25234C0.662986 3.20071 0.831443 2.14648 1.36764 1.11895L1.49169 0.870842C1.59102 0.672325 1.78084 0.53286 1.99966 0.497307C2.21847 0.461906 2.44277 0.534233 2.59948 0.690941L2.82546 0.917229C4.61074 2.78887 6.20986 3.67693 8.9746 4.28454C9.09804 3.22329 9.55687 2.23681 10.2971 1.46044C11.178 0.536675 12.3543 0.0183335 13.6093 0.000633303H13.6175C14.5332 0.000633303 15.6691 0.523399 16.356 0.892052C16.9453 0.699181 17.6553 0.400566 18.392 0.0848618C18.7367 -0.0768813 19.1617 -0.00287624 19.4327 0.26812C19.6983 0.533775 19.772 0.908379 19.631 1.27245C19.5775 1.42153 19.5167 1.56786 19.4491 1.71099C19.55 1.75723 19.6423 1.81994 19.7203 1.89791C19.956 2.13366 20.0543 2.50262 19.9705 2.83801L19.9615 2.8699C19.6792 3.77962 19.137 4.52059 18.4198 4.98568C18.3 11.364 13.4968 16.5122 7.61001 16.5122V16.5122ZM1.49627 14.2592C2.68569 14.9321 4.95238 15.3392 7.61001 15.3392C10.1651 15.3392 12.5763 14.2423 14.3993 12.2504C16.2372 10.2422 17.2493 7.5754 17.2493 4.74123V4.70934C17.2493 4.45269 17.3906 4.21847 17.6179 4.09792C18.0792 3.85363 18.4527 3.43752 18.6957 2.90545C18.4451 2.94497 18.1904 2.84441 18.0344 2.63476C17.8529 2.39108 17.8509 2.06194 18.0293 1.81612C18.1256 1.68337 18.2129 1.54528 18.2907 1.40246C17.6546 1.66964 17.0505 1.9092 16.526 2.06835C16.3354 2.12603 16.123 2.10345 15.9489 2.00625C15.0152 1.48608 14.1456 1.1751 13.6214 1.17358C11.6867 1.20318 10.1137 2.86013 10.1137 4.8691C10.1137 5.07677 10.0215 5.27148 9.86113 5.40347C9.70061 5.5353 9.49187 5.5881 9.28801 5.54781C6.10015 4.91976 4.21111 3.97799 2.2467 2.00396C1.96517 2.67855 1.88827 3.35802 2.01842 4.02895C2.15041 4.70858 2.50152 5.38958 3.0339 5.99825C3.23623 6.22927 3.26308 6.55978 3.10073 6.82055C2.93899 7.08041 2.63152 7.20187 2.33596 7.12267C2.10494 7.06072 1.89254 6.97939 1.69112 6.87487C2.10143 7.76614 2.80715 8.59042 3.6943 9.19833C3.95141 9.37457 4.05883 9.70309 3.95568 9.99728C3.85238 10.2919 3.56383 10.4816 3.25194 10.4584C2.91213 10.4332 2.61107 10.3687 2.33398 10.2599C2.83141 11.2729 3.62624 11.8303 4.85076 12.0433C5.14235 12.0941 5.36941 12.3244 5.41579 12.6163C5.46233 12.9082 5.31783 13.1975 5.05645 13.3362C4.01275 13.8895 2.872 14.1864 1.49627 14.2592V14.2592Z" fill="white"/>
</svg>
